<svg xmlns="http://www.w3.org/2000/svg" width="40" height="40" fill="none"><rect width="40" height="40" fill="#D12730" rx="4"/><path fill="#fff" fill-rule="evenodd" d="M17.293 12.293A1 1 0 0 1 18 12h4a1 1 0 0 1 1 1v1h-6v-1a1 1 0 0 1 .293-.707ZM15 14v-1a3 3 0 0 1 3-3h4a3 3 0 0 1 3 3v1h4.048c.526 0 .952.448.952 1s-.426 1-.952 1H27v11a3 3 0 0 1-3 3h-7c-.796 0-2.559-.316-3.121-.879A3 3 0 0 1 13 27V16h-2.048c-.526 0-.952-.448-.952-1s.426-1 .952-1H15Zm0 2v12h10V16H15Z" clip-rule="evenodd"/><path fill="#fff" d="M16 19h8v8h-8v-8Z"/></svg>