<svg xmlns="http://www.w3.org/2000/svg" width="40" height="40" fill="none"><rect width="40" height="40" fill="#757575" rx="4"/><path fill="#fff" d="M16.322 12.707a4.029 4.029 0 0 1 .303-2.05 16.25 16.25 0 0 0-8.284 4.652c-.455.473-.455 1.182 0 1.63.202.236.48.341.783.341.303 0 .58-.105.783-.342a13.928 13.928 0 0 1 6.465-3.837l-.05-.394ZM31.678 15.335a16.25 16.25 0 0 0-8.284-4.651c.278.63.379 1.34.303 2.05l-.05.394a14.381 14.381 0 0 1 6.465 3.837c.43.446 1.136.446 1.566 0 .43-.473.43-1.183 0-1.63ZM16.7 15.887c-1.818.552-3.485 1.577-4.899 3.048-.454.473-.454 1.183 0 1.63.202.236.48.341.783.341.278 0 .58-.105.783-.341 1.06-1.078 2.298-1.893 3.637-2.34l-.303-2.338ZM23.318 15.887l-.278 2.339a9.016 9.016 0 0 1 3.612 2.339c.454.447 1.136.447 1.566 0 .454-.473.454-1.183 0-1.63-1.414-1.471-3.081-2.496-4.9-3.048ZM15.261 22.536a1.192 1.192 0 0 0 0 1.63c.228.236.505.341.783.341s.581-.105.783-.341c.253-.263.53-.473.808-.657l-.303-2.445c-.783.342-1.465.841-2.07 1.472ZM22.687 21.064l-.303 2.445c.277.183.555.42.782.657.455.446 1.137.446 1.566 0 .455-.474.455-1.183 0-1.63a6.07 6.07 0 0 0-2.045-1.472ZM19.277 24.008c.227-.08.48-.08.707-.08.253 0 .505.027.758.08l1.364-11.511c.025-.105.025-.184.025-.29 0-1.182-.935-2.207-2.122-2.207-1.262 0-2.247 1.183-2.121 2.47l1.389 11.537ZM20.01 25.559c-1.162 0-2.122.998-2.122 2.207 0 1.235.96 2.234 2.122 2.234 1.187 0 2.147-.999 2.147-2.234 0-1.209-.96-2.207-2.147-2.207Z"/></svg>